<svg version="1.0" xmlns="http://www.w3.org/2000/svg" width="128pt" height="128pt" viewBox="0 0 128 128" preserveAspectRatio="xMidYMid meet">

    <g transform="translate(0,128) scale(0.1,-0.1)" fill="#000" stroke="none">
        <path d="M20 1260 c-20 -20 -20 -33 -20 -620 0 -587 0 -600 20 -620 20 -20 33
        -20 620 -20 587 0 600 0 620 20 20 20 20 33 20 620 0 587 0 600 -20 620 -20
        20 -33 20 -620 20 -587 0 -600 0 -620 -20z m979 -377 c0 -11 -348 -308 -359
        -308 -11 0 -359 297 -359 308 -1 4 161 7 359 7 198 0 360 -3 359 -7z m-616
        -139 c67 -58 123 -109 125 -114 2 -6 -99 -98 -230 -208 l-28 -24 0 226 c0 124
        2 226 5 226 3 0 60 -48 128 -106z m647 -120 l0 -226 -28 24 c-131 110 -232
        202 -230 208 4 11 241 218 251 219 4 1 7 -101 7 -225z m-439 -65 l49 -41 49
        42 50 42 132 -114 131 -113 -181 -3 c-99 -1 -263 -1 -362 0 l-182 3 129 112
        c71 62 131 112 133 113 2 0 25 -18 52 -41z"/>
    </g>
</svg>
