<svg version="1.0" xmlns="http://www.w3.org/2000/svg" width="512px" height="512px" viewBox="0 0 512 512" preserveAspectRatio="xMidYMid meet">
    <rect width="512" height="512" rx="20" ry="20" fill="#000" />

    <g transform="translate(96,416) scale(0.06,-0.06)" fill="#fff">
        <path d="M2508 5063 c-8 -10 -312 -577 -676 -1261 -495 -928 -662 -1251 -662
        -1276 0 -19 7 -39 18 -48 29 -27 1348 -688 1370 -688 21 0 1345 662 1369 684
        7 6 13 31 14 56 2 42 -45 132 -656 1280 -362 679 -665 1243 -673 1253 -9 10
        -29 17 -52 17 -23 0 -43 -7 -52 -17z m-26 -1915 c-12 -12 -1065 -468 -1070
        -463 -2 2 238 459 534 1016 l539 1013 3 -779 c1 -428 -2 -783 -6 -787z m708
        524 c287 -541 520 -985 518 -987 -2 -2 -244 101 -538 228 l-535 232 -2 785
        c-3 768 -2 784 16 755 10 -16 253 -472 541 -1013z m-700 -1192 c0 -275 -3
        -500 -6 -500 -11 0 -1064 535 -1064 540 0 5 1049 459 1063 460 4 0 7 -225 7
        -500z m692 267 c285 -122 518 -224 518 -227 0 -6 -1052 -540 -1063 -540 -4 0
        -7 225 -7 501 0 473 1 501 18 495 9 -4 250 -106 534 -229z"/>
        <path d="M1202 2123 c-23 -9 -43 -60 -33 -86 5 -14 309 -466 676 -1005 523
         -770 671 -981 691 -986 14 -4 37 -1 51 6 17 9 245 334 675 963 357 523 660
        968 674 991 20 35 22 45 13 71 -6 20 -22 36 -41 44 -37 15 32 48 -750 -359
        l-597 -310 -653 339 c-359 186 -662 338 -673 338 -11 0 -26 -3 -33 -6z m774
         -532 c269 -139 495 -258 502 -263 9 -8 12 -118 12 -489 0 -264 -3 -479 -7
         -478 -6 0 -972 1418 -1007 1477 -5 8 -5 13 1 11 5 -2 230 -118 499 -258z
        m1667 245 c-35 -59 -1000 -1475 -1005 -1475 -5 -1 -8 215 -8 479 l0 480 23 14
        c23 14 990 516 995 516 2 0 -1 -6 -5 -14z"/>
    </g>
</svg>
